<svg width="68" height="71" viewBox="0 0 68 71" fill="none" xmlns="http://www.w3.org/2000/svg">
<g filter="url(#filter0_d_818_19)">
<mask id="path-1-inside-1_818_19" fill="white">
<path d="M60.8352 22.63C62.142 21.9575 62.6658 20.3455 61.8837 19.1012C58.6431 13.9454 53.942 9.84081 48.3513 7.32907C41.9487 4.45256 34.7591 3.83563 27.96 5.57932C21.161 7.32301 15.1557 11.324 10.9277 16.9268C6.69975 22.5296 4.49984 29.4022 4.68831 36.4187C4.87679 43.4353 7.44249 50.1798 11.9651 55.5476C16.4878 60.9154 22.6993 64.5881 29.5821 65.9643C36.4649 67.3405 43.6111 66.3385 49.85 63.1224C55.2978 60.3141 59.7718 55.9631 62.731 50.6407C63.4451 49.3562 62.8355 47.7747 61.4945 47.1733C60.1534 46.572 58.5905 47.1804 57.8536 48.452C55.4037 52.6791 51.7868 56.1362 47.4114 58.3916C42.2443 61.0552 36.3259 61.885 30.6256 60.7453C24.9253 59.6056 19.781 56.5638 16.0353 52.1182C12.2897 47.6727 10.1648 42.0869 10.0087 36.2758C9.85262 30.4648 11.6746 24.7729 15.1761 20.1327C18.6777 15.4925 23.6513 12.1789 29.2822 10.7348C34.9131 9.29068 40.8676 9.80162 46.1701 12.1839C50.6603 14.2012 54.4577 17.4591 57.1309 21.5486C57.935 22.7788 59.5284 23.3025 60.8352 22.63Z"/>
</mask>
<path d="M60.8352 22.63C62.142 21.9575 62.6658 20.3455 61.8837 19.1012C58.6431 13.9454 53.942 9.84081 48.3513 7.32907C41.9487 4.45256 34.7591 3.83563 27.96 5.57932C21.161 7.32301 15.1557 11.324 10.9277 16.9268C6.69975 22.5296 4.49984 29.4022 4.68831 36.4187C4.87679 43.4353 7.44249 50.1798 11.9651 55.5476C16.4878 60.9154 22.6993 64.5881 29.5821 65.9643C36.4649 67.3405 43.6111 66.3385 49.85 63.1224C55.2978 60.3141 59.7718 55.9631 62.731 50.6407C63.4451 49.3562 62.8355 47.7747 61.4945 47.1733C60.1534 46.572 58.5905 47.1804 57.8536 48.452C55.4037 52.6791 51.7868 56.1362 47.4114 58.3916C42.2443 61.0552 36.3259 61.885 30.6256 60.7453C24.9253 59.6056 19.781 56.5638 16.0353 52.1182C12.2897 47.6727 10.1648 42.0869 10.0087 36.2758C9.85262 30.4648 11.6746 24.7729 15.1761 20.1327C18.6777 15.4925 23.6513 12.1789 29.2822 10.7348C34.9131 9.29068 40.8676 9.80162 46.1701 12.1839C50.6603 14.2012 54.4577 17.4591 57.1309 21.5486C57.935 22.7788 59.5284 23.3025 60.8352 22.63Z" stroke="#3386FF" stroke-width="12" shape-rendering="crispEdges" mask="url(#path-1-inside-1_818_19)"/>
</g>
<defs>
<filter id="filter0_d_818_19" x="0.677734" y="0.608398" width="66.3555" height="69.957" filterUnits="userSpaceOnUse" color-interpolation-filters="sRGB">
<feFlood flood-opacity="0" result="BackgroundImageFix"/>
<feColorMatrix in="SourceAlpha" type="matrix" values="0 0 0 0 0 0 0 0 0 0 0 0 0 0 0 0 0 0 127 0" result="hardAlpha"/>
<feOffset/>
<feGaussianBlur stdDeviation="2"/>
<feComposite in2="hardAlpha" operator="out"/>
<feColorMatrix type="matrix" values="0 0 0 0 0.2 0 0 0 0 0.52549 0 0 0 0 1 0 0 0 1 0"/>
<feBlend mode="normal" in2="BackgroundImageFix" result="effect1_dropShadow_818_19"/>
<feBlend mode="normal" in="SourceGraphic" in2="effect1_dropShadow_818_19" result="shape"/>
</filter>
</defs>
</svg>
