<svg width="26" height="34" viewBox="0 0 26 34" fill="none" xmlns="http://www.w3.org/2000/svg">
<path d="M0 1.88889L0 32.1111C0 33.15 0.974998 34 2.16667 34C3.35833 34 4.33333 33.15 4.33333 32.1111L4.33333 1.88889C4.33333 0.85 3.35833 0 2.16667 0C0.974998 0 0 0.85 0 1.88889ZM10.8333 1.88889L10.8333 32.1111C10.8333 33.15 11.8083 34 13 34C14.1917 34 15.1667 33.15 15.1667 32.1111L15.1667 1.88889C15.1667 0.85 14.1917 0 13 0C11.8083 0 10.8333 0.85 10.8333 1.88889ZM23.8333 0C22.6417 0 21.6667 0.85 21.6667 1.88889V32.1111C21.6667 33.15 22.6417 34 23.8333 34C25.025 34 26 33.15 26 32.1111L26 1.88889C26 0.85 25.025 0 23.8333 0Z" fill="white"/>
</svg>
