<svg width="34" height="32" viewBox="0 0 34 32" fill="none" xmlns="http://www.w3.org/2000/svg">
<path d="M3.57895 21.3703C2.67602 21.3706 1.80635 21.0295 1.14428 20.4153C0.482212 19.8012 0.0766678 18.9594 0.00894547 18.0587L0 17.7902V14.2101C-0.000286102 13.3069 0.340729 12.4369 0.954678 11.7746C1.56863 11.1123 2.41014 10.7067 3.31053 10.6389L3.57895 10.63V21.3703ZM34 16.0001C34.0001 19.2491 32.7386 22.371 30.4818 24.7074C28.2249 27.0438 25.1491 28.412 21.9032 28.5234L21.4737 28.5306H14.7381L8.21726 31.7921C7.93274 31.9344 7.61797 32.0056 7.2999 31.9997C6.98183 31.9937 6.66995 31.9107 6.39096 31.7578C6.11198 31.6049 5.87419 31.3866 5.69798 31.1216C5.52176 30.8567 5.41237 30.553 5.37916 30.2365L5.36842 30.0306L5.36842 1.96965C5.36833 1.65131 5.44539 1.3377 5.59301 1.05568C5.74063 0.773665 5.9544 0.531655 6.216 0.35039C6.47761 0.169125 6.77924 0.0540106 7.09507 0.0149101C7.41089 -0.0241904 7.73148 0.0138894 8.02937 0.125886L8.21726 0.208229L14.7381 3.46972L21.4737 3.46972C24.7959 3.46972 27.982 4.78988 30.3311 7.13979C32.6803 9.4897 34 12.6769 34 16.0001Z" fill="white"/>
</svg>
