<svg width="30" height="30" viewBox="0 0 30 30" fill="none" xmlns="http://www.w3.org/2000/svg">
<g clip-path="url(#clip0_926_576)">
<path d="M18.7501 23.75C18.7503 24.3807 18.512 24.9882 18.0832 25.4507C17.6543 25.9132 17.0665 26.1964 16.4376 26.2437L16.2501 26.25H13.7501C13.1193 26.2502 12.5118 26.012 12.0494 25.5831C11.5869 25.1543 11.3036 24.5664 11.2563 23.9375L11.2501 23.75H18.7501ZM15.0001 2.5C17.2688 2.49996 19.4488 3.38112 21.0803 4.95759C22.7119 6.53407 23.6673 8.68261 23.7451 10.95L23.7501 11.25V15.955L26.0276 20.51C26.127 20.7087 26.1767 20.9286 26.1725 21.1508C26.1684 21.373 26.1104 21.5908 26.0036 21.7857C25.8968 21.9806 25.7444 22.1467 25.5594 22.2698C25.3744 22.3929 25.1623 22.4693 24.9413 22.4925L24.7976 22.5H5.20256C4.98026 22.5001 4.76126 22.4462 4.56433 22.3431C4.3674 22.24 4.1984 22.0907 4.07183 21.9079C3.94525 21.7252 3.86486 21.5145 3.83756 21.2939C3.81026 21.0733 3.83685 20.8493 3.91505 20.6412L3.97255 20.51L6.25005 15.955V11.25C6.25005 8.92935 7.17193 6.70376 8.81287 5.06281C10.4538 3.42187 12.6794 2.5 15.0001 2.5Z" fill="white"/>
</g>
<defs>
<clipPath id="clip0_926_576">
<rect width="30" height="30" fill="white"/>
</clipPath>
</defs>
</svg>
